<?xml version="1.0" encoding="UTF-8"?>
<svg width="48px" height="48px" viewBox="0 0 48 48" version="1.1" xmlns="http://www.w3.org/2000/svg" xmlns:xlink="http://www.w3.org/1999/xlink">
    <title>01 通用/01 图标/48px/graphic1</title>
    <g id="01-通用/01-图标/48px/graphic1" stroke="none" stroke-width="1" fill="none" fill-rule="evenodd">
        <g id="graph2" transform="translate(9.000000, 9.000000)" fill="#50545E" fill-rule="nonzero">
            <path d="M0.586755409,29.0523424 L2.05234239,30.4132446 L4.09369569,28.2148641 L2.62810871,26.8539619 L0.586755409,29.0523424 Z M3.98901091,25.3883749 L5.45459789,26.7492771 L7.49595119,24.5508967 L6.0303642,23.1899945 L3.98901091,25.3883749 Z M7.3912664,21.7244075 L8.85685339,23.0853097 L10.8982067,20.8869292 L9.4326197,19.526027 L7.3912664,21.7244075 Z M10.7935219,18.06044 L12.2591089,19.4213422 L14.3004622,17.2229617 L12.8348752,15.8620595 L10.7935219,18.06044 Z M14.1957774,14.3964726 L15.6613644,15.7573748 L17.7027177,13.5589943 L16.2371307,12.1980921 L14.1957774,14.3964726 Z M17.5980329,10.7325051 L19.0636199,12.0934073 L21.1049732,9.89502683 L19.6393862,8.53412463 L17.5980329,10.7325051 Z M21.0002884,7.06853764 L22.4658754,8.42943984 L24.5072287,6.23105937 L23.0416417,4.87015717 L21.0002884,7.06853764 Z M24.4025439,3.40457019 L25.8681309,4.76547238 L27.9094842,2.56709191 L26.4438972,1.20618971 L24.4025439,3.40457019 Z" id="直线" transform="translate(14.248120, 15.809717) rotate(2.000000) translate(-14.248120, -15.809717) "></path>
        </g>
    </g>
</svg>