<?xml version="1.0" encoding="UTF-8"?>
<svg width="40px" height="40px" viewBox="0 0 40 40" version="1.1" xmlns="http://www.w3.org/2000/svg" xmlns:xlink="http://www.w3.org/1999/xlink">
    <!-- Generator: Sketch 60 (88103) - https://sketch.com -->
    <title>01 icon/形状工具/浅色/02 虚线</title>
    <desc>Created with Sketch.</desc>
    <g id="01-icon/形状工具/浅色/02-虚线" stroke="none" stroke-width="1" fill="none" fill-rule="evenodd">
        <path d="M5.58675541,34.0523424 L7.05234239,35.4132446 L9.09369569,33.2148641 L7.62810871,31.8539619 L5.58675541,34.0523424 Z M8.98901091,30.3883749 L10.4545979,31.7492771 L12.4959512,29.5508967 L11.0303642,28.1899945 L8.98901091,30.3883749 Z M12.3912664,26.7244075 L13.8568534,28.0853097 L15.8982067,25.8869292 L14.4326197,24.526027 L12.3912664,26.7244075 Z M15.7935219,23.06044 L17.2591089,24.4213422 L19.3004622,22.2229617 L17.8348752,20.8620595 L15.7935219,23.06044 Z M19.1957774,19.3964726 L20.6613644,20.7573748 L22.7027177,18.5589943 L21.2371307,17.1980921 L19.1957774,19.3964726 Z M22.5980329,15.7325051 L24.0636199,17.0934073 L26.1049732,14.8950268 L24.6393862,13.5341246 L22.5980329,15.7325051 Z M26.0002884,12.0685376 L27.4658754,13.4294398 L29.5072287,11.2310594 L28.0416417,9.87015717 L26.0002884,12.0685376 Z M29.4025439,8.40457019 L30.8681309,9.76547238 L32.9094842,7.56709191 L31.4438972,6.20618971 L29.4025439,8.40457019 Z" id="直线" fill="#50545E" fill-rule="nonzero" transform="translate(19.248120, 20.809717) rotate(2.000000) translate(-19.248120, -20.809717) "></path>
    </g>
</svg>