<?xml version="1.0" encoding="UTF-8"?>
<svg width="48px" height="48px" viewBox="0 0 48 48" version="1.1" xmlns="http://www.w3.org/2000/svg" xmlns:xlink="http://www.w3.org/1999/xlink">
    <title>01 通用/01 图标/48px/graphic3</title>
    <g id="01-通用/01-图标/48px/graphic3" stroke="none" stroke-width="1" fill="none" fill-rule="evenodd">
        <g id="graph4" transform="translate(9.000000, 9.000000)" fill="#50545E">
            <path d="M27,0 C28.6568542,0 30,1.34314575 30,3 C30,4.65685425 28.6568542,6 27,6 C26.5371241,6 26.0987325,5.89517048 25.7072712,5.70795751 L5.70748498,25.7062836 C5.89499407,26.0979951 6,26.5367348 6,27 C6,28.6568542 4.65685425,30 3,30 C1.34314575,30 2.27373675e-13,28.6568542 2.27373675e-13,27 C2.27373675e-13,25.3431458 1.34314575,24 3,24 C3.46326517,24 3.90200489,24.1050059 4.29371639,24.292515 L24.2920425,4.29272878 C24.1048295,3.90126749 24,3.46287587 24,3 C24,1.34314575 25.3431458,0 27,0 Z" id="形状结合"></path>
        </g>
    </g>
</svg>