<?xml version="1.0" encoding="UTF-8"?>
<svg width="40px" height="40px" viewBox="0 0 40 40" version="1.1" xmlns="http://www.w3.org/2000/svg" xmlns:xlink="http://www.w3.org/1999/xlink">
    <!-- Generator: Sketch 60 (88103) - https://sketch.com -->
    <title>01 icon/形状工具/浅色/04 线段</title>
    <desc>Created with Sketch.</desc>
    <g id="01-icon/形状工具/浅色/04-线段" stroke="none" stroke-width="1" fill="none" fill-rule="evenodd">
        <path d="M33,4 C34.6568542,4 36,5.34314575 36,7 C36,8.65685425 34.6568542,10 33,10 C32.5371241,10 32.0987325,9.89517048 31.7072712,9.70795751 L11.707485,29.7062836 C11.8949941,30.0979951 12,30.5367348 12,31 C12,32.6568542 10.6568542,34 9,34 C7.34314575,34 6,32.6568542 6,31 C6,29.3431458 7.34314575,28 9,28 C9.46326517,28 9.90200489,28.1050059 10.2937164,28.292515 L30.2920425,8.29272878 C30.1048295,7.90126749 30,7.46287587 30,7 C30,5.34314575 31.3431458,4 33,4 Z" id="形状结合" fill="#50545E"></path>
    </g>
</svg>