<?xml version="1.0" encoding="UTF-8"?>
<svg width="48px" height="48px" viewBox="0 0 48 48" version="1.1" xmlns="http://www.w3.org/2000/svg" xmlns:xlink="http://www.w3.org/1999/xlink">
    <title>01 通用/01 图标/48px/graphic19</title>
    <g id="01-通用/01-图标/48px/graphic19" stroke="none" stroke-width="1" fill="none" fill-rule="evenodd">
        <g id="01-icon/立体形状工具/浅色/04-圆锥体" transform="translate(10.000000, 6.000000)" fill="#50545E" fill-rule="nonzero">
            <g id="编组" transform="translate(0.000000, 0.314226)">
                <path d="M13.9954186,0.834611761 L27.8536155,27.3145438 L27.6801561,27.4046529 C27.8896444,27.8174403 28,28.2460838 28,28.6857737 C28,31.9994822 21.7319865,34.6857737 14,34.6857737 C6.2680135,34.6857737 0,31.9994822 0,28.6857737 C0,28.2279118 0.119665864,27.7820283 0.34632495,27.3535542 L0.277702036,27.318297 L13.9954186,0.834611761 Z M14,24.6857737 C10.4935288,24.6857737 7.23202629,25.2769877 4.88834366,26.2814231 C2.93408249,27.1189636 2,28.0654289 2,28.6857737 C2,29.3061185 2.93408249,30.2525838 4.88834366,31.0901243 C7.23202629,32.0945597 10.4935288,32.6857737 14,32.6857737 C17.5064712,32.6857737 20.7679737,32.0945597 23.1116563,31.0901243 C25.0659175,30.2525838 26,29.3061185 26,28.6857737 C26,28.0654289 25.0659175,27.1189636 23.1116563,26.2814231 C20.7679737,25.2769877 17.5064712,24.6857737 14,24.6857737 Z M14.004,5.164 L3.99369379,24.4894054 C6.53517286,23.3764587 10.0793819,22.6857737 14,22.6857737 C17.995987,22.6857737 21.600954,23.4032691 24.1517603,24.5540567 L14.004,5.164 Z" id="形状结合"></path>
            </g>
        </g>
    </g>
</svg>