<?xml version="1.0" encoding="UTF-8"?>
<svg width="48px" height="48px" viewBox="0 0 48 48" version="1.1" xmlns="http://www.w3.org/2000/svg" xmlns:xlink="http://www.w3.org/1999/xlink">
    <title>01 通用/01 图标/48px/graphic18</title>
    <g id="01-通用/01-图标/48px/graphic18" stroke="none" stroke-width="1" fill="none" fill-rule="evenodd">
        <g id="01-icon/立体形状工具/浅色/03-圆柱体" transform="translate(11.000000, 8.000000)" fill="#50545E" fill-rule="nonzero">
            <g id="编组">
                <path d="M0,6 C0,2.6862915 5.82029825,0 13,0 C20.0600401,0 25.8056124,2.59749464 25.9951704,5.83484695 L26,6 L26,27 L26,27 C26,30.3137085 20.1797017,33 13,33 C5.82029825,33 0,30.3137085 0,27 L0,6 Z M13,23 C6.79488539,23 2,25.213024 2,27 C2,28.786976 6.79488539,31 13,31 C19.2051146,31 24,28.786976 24,27 C24,25.213024 19.2051146,23 13,23 Z M1.99994223,9.19905245 L1.99994223,23.8009476 C4.3025634,22.1178853 8.36842759,21 13,21 C17.6322372,21 21.6986038,22.1182062 24.0010492,23.8016723 L24.0010492,9.19832768 C21.6986038,10.8817938 17.6322372,12 13,12 C8.36842759,12 4.3025634,10.8821147 1.99994223,9.19905245 Z M13,2 C6.79488539,2 2,4.21302403 2,6 C2,7.78697597 6.79488539,10 13,10 C19.2051146,10 24,7.78697597 24,6 C24,4.21302403 19.2051146,2 13,2 Z" id="形状结合"></path>
            </g>
        </g>
    </g>
</svg>