<?xml version="1.0" encoding="UTF-8"?>
<svg width="48px" height="48px" viewBox="0 0 48 48" version="1.1" xmlns="http://www.w3.org/2000/svg" xmlns:xlink="http://www.w3.org/1999/xlink">
    <title>01 通用/01 图标/48px/graphic21</title>
    <g id="01-通用/01-图标/48px/graphic21" stroke="none" stroke-width="1" fill="none" fill-rule="evenodd">
        <g id="01-icon/立体形状工具/浅色/05-球体" transform="translate(7.000000, 7.000000)" fill="#50545E" fill-rule="nonzero">
            <g id="编组">
                <path d="M17,0 C26.3888407,0 34,7.61115925 34,17 C34,26.3888407 26.3888407,34 17,34 C7.61115925,34 0,26.3888407 0,17 C0,7.61115925 7.61115925,0 17,0 Z M17,2 C8.71572875,2 2,8.71572875 2,17 C2,25.2842712 8.71572875,32 17,32 C25.2842712,32 32,25.2842712 32,17 C32,8.71572875 25.2842712,2 17,2 Z" id="形状结合"></path>
                <path d="M18.0093021,11.5096933 L17.9900412,12.5095078 C17.661461,12.5031779 17.3313456,12.5 17,12.5 L17,11.5 C17.3377648,11.5 17.6743007,11.5032397 18.0093021,11.5096933 Z M20.0284808,11.588558 L19.9693281,12.5868069 C19.641947,12.5674075 19.3120572,12.55122 18.9800175,12.5382844 L19.0189459,11.5390424 C19.3577194,11.5522403 19.6943509,11.5687586 20.0284808,11.588558 Z M22.0434303,11.7508175 L21.9414254,12.7456014 C21.6166672,12.7123008 21.2881684,12.6822888 20.9563547,12.6556262 L21.0364505,11.6588391 C21.3755499,11.6860871 21.7113519,11.7167663 22.0434303,11.7508175 Z M24.0544256,12.0051751 L23.9044149,12.9938595 C23.5837219,12.9452016 23.2576424,12.8999377 22.9266897,12.8581605 L23.0519287,11.8660339 C23.391106,11.9088493 23.7254425,11.9552593 24.0544256,12.0051751 Z M26.0570605,12.3664005 L25.8502395,13.3447793 C25.5357089,13.2782902 25.2134394,13.2153383 24.8840647,13.1560682 L25.0611675,12.1718759 C25.4003891,12.2329179 25.7325631,12.2978045 26.0570605,12.3664005 Z M28.0298075,12.8567552 L27.7508723,13.8170651 C27.4465714,13.7286767 27.1308952,13.6439993 26.8046533,13.5632702 L27.0448603,12.5925485 C27.3839038,12.6764454 27.7124838,12.7645842 28.0298075,12.8567552 Z M29.9769627,13.5316013 L29.5939484,14.4553437 C29.3092208,14.3372861 29.0066352,14.2230704 28.6872957,14.1131393 L29.0127942,13.1675968 C29.3511135,13.2840616 29.6728521,13.4055069 29.9769627,13.5316013 Z M31.8530202,14.5186849 L31.2870161,15.3430873 C31.0496508,15.1801211 30.780025,15.0202989 30.479818,14.8647962 L30.9397617,13.9768482 C31.2753158,14.1506601 31.5802558,14.331415 31.8530202,14.5186849 Z M33.3597947,16.2393803 L32.4229678,16.5891737 C32.3416905,16.3714944 32.1948175,16.1478173 31.9805438,15.9217218 L32.7063715,15.2338453 C33.0082427,15.5523712 33.2285556,15.887892 33.3597947,16.2393803 Z M32.8066924,18.6562464 L32.0552911,17.9964009 C32.2571018,17.7665882 32.3886901,17.5404157 32.4529755,17.3207381 L33.4127253,17.6015947 C33.3049081,17.97003 33.0999697,18.3222758 32.8066924,18.6562464 Z M30.9894349,19.9972537 L30.5247492,19.1117781 C30.8239762,18.9547477 31.092055,18.7934219 31.3272883,18.6290168 L31.9001468,19.4486711 C31.6288439,19.6382853 31.3247451,19.8212875 30.9894349,19.9972537 Z M29.113085,20.7975624 L28.7822453,19.8538754 C29.1010977,19.7420915 29.4027385,19.6260041 29.6860418,19.5060737 L30.0758784,20.4269578 C29.7726924,20.5553051 29.4514062,20.678953 29.113085,20.7975624 Z M27.1073625,21.3919076 L26.8648797,20.4217519 C27.1910903,20.3402181 27.5065864,20.2547236 27.8105506,20.1655101 L28.0921715,21.1250359 C27.7750455,21.2181124 27.4465092,21.3071405 27.1073625,21.3919076 Z M25.0722826,21.8261222 L24.8948657,20.8419864 C25.2244088,20.7825774 25.5468237,20.7194814 25.8614747,20.6528434 L26.0686629,21.6311445 C25.744027,21.6998971 25.4116899,21.7649349 25.0722826,21.8261222 Z M23.1566861,22.1206081 L23.0289445,21.1288007 C23.360027,21.0861583 23.6861344,21.0400166 24.0067469,20.9904704 L24.1594699,21.9787395 C23.8304961,22.0295777 23.496062,22.0768976 23.1566861,22.1206081 Z M21.1474631,22.3321083 L21.0650052,21.3355138 C21.3967486,21.3080654 21.7251042,21.277262 22.0496421,21.2431658 L22.1541279,22.2376922 C21.8222295,22.2725617 21.4865312,22.3040539 21.1474631,22.3321083 Z M19.1141613,22.4571585 L19.0733521,21.4579915 C19.4051659,21.4444392 19.7347843,21.4276355 20.0618464,21.4076212 L20.1229264,22.4057541 C19.7890996,22.4261823 19.452724,22.4433305 19.1141613,22.4571585 Z M17.0785207,22.4999416 L17.0770334,21.4999427 C17.4084885,21.4994497 17.7386806,21.4957751 18.0673026,21.4889451 L18.0880818,22.4887292 C17.7530281,22.4956929 17.4164051,22.4994391 17.0785207,22.4999416 Z M15.0501539,22.4636024 L15.0877203,21.4643083 C15.4159083,21.4766458 15.7460588,21.4858052 16.0778431,21.4917547 L16.0599142,22.491594 C15.7215879,22.4855272 15.3848913,22.4761862 15.0501539,22.4636024 Z M13.0324522,22.3466467 L13.1110879,21.3497433 C13.4374703,21.3754884 13.7668968,21.3979875 14.0989792,21.417192 L14.0412451,22.415524 C13.7022071,22.3959173 13.3658131,22.3729423 13.0324522,22.3466467 Z M11.0186358,22.1428131 L11.1421994,21.1504764 C11.4653988,21.1907205 11.7930448,21.2276283 12.1246734,21.2611257 L12.024176,22.256063 C11.6848822,22.2217914 11.3495475,22.1840175 11.0186358,22.1428131 Z M9.0110372,21.8410402 L9.18610859,20.8564844 C9.50456327,20.9131113 9.82939818,20.966276 10.1600474,21.0158646 L10.0117326,22.0048048 C9.67220775,21.9538851 9.33845467,21.8992608 9.0110372,21.8410402 Z M7.01419082,21.421995 L7.25226745,20.4507486 C7.5628406,20.5268778 7.88264787,20.5993876 8.21098127,20.6680971 L8.0061509,21.6468946 C7.66681373,21.5758824 7.33592725,21.5008606 7.01419082,21.421995 Z M5.05721786,20.856353 L5.37906169,19.9095602 C5.67608611,20.0105279 5.98699856,20.1077025 6.31087246,20.2007737 L6.03468165,21.1618765 C5.69573312,21.0644733 5.36961284,20.9625456 5.05721786,20.856353 Z M3.13475583,20.061381 L3.58775693,19.1698711 C3.85629879,19.3063247 4.1478104,19.439014 4.46096627,19.5672874 L4.08191775,20.4926642 C3.74432883,20.3543826 3.42819896,20.2104877 3.13475583,20.061381 Z M1.36113262,18.8357333 L2.07079136,18.1311878 C2.25971643,18.3214839 2.49398702,18.51078 2.77175735,18.6967587 L2.21540461,19.5277049 C1.88491264,19.3064269 1.59938077,19.0757106 1.36113262,18.8357333 Z M0.563931181,16.4845063 L1.53414609,16.7267521 C1.51047456,16.8215586 1.50020363,16.9129262 1.50054796,17.0346516 C1.50489336,17.1719858 1.53515412,17.3099092 1.5923606,17.4500481 L0.666528919,17.8279842 C0.565150191,17.5796363 0.509226368,17.3247451 0.500802802,17.0526424 C0.499862207,16.8367306 0.519414287,16.6628002 0.563931181,16.4845063 Z M1.98287243,14.6349861 L2.573529,15.4419092 C2.30602724,15.6377168 2.08701272,15.8361287 1.91815468,16.034293 L1.15700884,15.3857123 C1.37929754,15.124844 1.65553236,14.8745946 1.98287243,14.6349861 Z M3.83645211,13.6105039 L4.23251064,14.5287292 C3.92177431,14.6627592 3.63439339,14.8012189 3.37176701,14.9433717 L2.895751,14.063935 C3.18527597,13.9072228 3.49927253,13.7559397 3.83645211,13.6105039 Z M5.81594371,12.9021408 L6.1015803,13.8604788 C5.77860481,13.956743 5.46925834,14.0571451 5.17449864,14.1613531 L4.84118029,13.2185388 C5.15199782,13.1086537 5.47722694,13.0030967 5.81594371,12.9021408 Z M7.83758257,12.3888604 L8.0477568,13.3665244 C7.71964011,13.4370616 7.40034352,13.5114229 7.09059015,13.5894195 L6.84640995,12.6196896 C7.16758427,12.5388172 7.49821299,12.4618167 7.83758257,12.3888604 Z M9.76356808,12.0332337 L9.91829387,13.0211911 C9.58805826,13.0729099 9.26390529,13.1282243 8.94641465,13.1870141 L8.76433947,12.2037295 C9.09099387,12.1432428 9.42426246,12.0863729 9.76356808,12.0332337 Z M11.7873825,11.7684919 L11.8931855,12.762879 C11.5617292,12.7981461 11.2344371,12.8368382 10.9117833,12.8788777 L10.7825823,11.8872593 C11.1130608,11.8442003 11.4481522,11.8045861 11.7873825,11.7684919 Z M13.7991256,11.5990784 L13.8618012,12.5971124 C13.5299759,12.6179507 13.2009428,12.6420908 12.8750973,12.6694817 L12.7913318,11.6729962 C13.1242198,11.6450133 13.4602831,11.6203574 13.7991256,11.5990784 Z M15.8341223,11.5129461 L15.8564033,12.5126979 C15.524691,12.5200906 15.1947139,12.5306987 14.8668063,12.5444888 L14.8247884,11.545372 C15.1592793,11.531305 15.4958356,11.5204854 15.8341223,11.5129461 Z M16.9984236,12.5 L16.8631186,12.5001809 L16.8604746,11.5001844 L16.9983932,11.5 L16.9984236,12.5 Z" id="椭圆形"></path>
                <path d="M18.0093021,11.5096933 L17.9900412,12.5095078 C17.661461,12.5031779 17.3313456,12.5 17,12.5 L17,11.5 C17.3377648,11.5 17.6743007,11.5032397 18.0093021,11.5096933 Z M20.0284808,11.588558 L19.9693281,12.5868069 C19.641947,12.5674075 19.3120572,12.55122 18.9800175,12.5382844 L19.0189459,11.5390424 C19.3577194,11.5522403 19.6943509,11.5687586 20.0284808,11.588558 Z M22.0434303,11.7508175 L21.9414254,12.7456014 C21.6166672,12.7123008 21.2881684,12.6822888 20.9563547,12.6556262 L21.0364505,11.6588391 C21.3755499,11.6860871 21.7113519,11.7167663 22.0434303,11.7508175 Z M24.0544256,12.0051751 L23.9044149,12.9938595 C23.5837219,12.9452016 23.2576424,12.8999377 22.9266897,12.8581605 L23.0519287,11.8660339 C23.391106,11.9088493 23.7254425,11.9552593 24.0544256,12.0051751 Z M26.0570605,12.3664005 L25.8502395,13.3447793 C25.5357089,13.2782902 25.2134394,13.2153383 24.8840647,13.1560682 L25.0611675,12.1718759 C25.4003891,12.2329179 25.7325631,12.2978045 26.0570605,12.3664005 Z M28.0298075,12.8567552 L27.7508723,13.8170651 C27.4465714,13.7286767 27.1308952,13.6439993 26.8046533,13.5632702 L27.0448603,12.5925485 C27.3839038,12.6764454 27.7124838,12.7645842 28.0298075,12.8567552 Z M29.9769627,13.5316013 L29.5939484,14.4553437 C29.3092208,14.3372861 29.0066352,14.2230704 28.6872957,14.1131393 L29.0127942,13.1675968 C29.3511135,13.2840616 29.6728521,13.4055069 29.9769627,13.5316013 Z M31.8530202,14.5186849 L31.2870161,15.3430873 C31.0496508,15.1801211 30.780025,15.0202989 30.479818,14.8647962 L30.9397617,13.9768482 C31.2753158,14.1506601 31.5802558,14.331415 31.8530202,14.5186849 Z M33.3597947,16.2393803 L32.4229678,16.5891737 C32.3416905,16.3714944 32.1948175,16.1478173 31.9805438,15.9217218 L32.7063715,15.2338453 C33.0082427,15.5523712 33.2285556,15.887892 33.3597947,16.2393803 Z M32.8066924,18.6562464 L32.0552911,17.9964009 C32.2571018,17.7665882 32.3886901,17.5404157 32.4529755,17.3207381 L33.4127253,17.6015947 C33.3049081,17.97003 33.0999697,18.3222758 32.8066924,18.6562464 Z M30.9894349,19.9972537 L30.5247492,19.1117781 C30.8239762,18.9547477 31.092055,18.7934219 31.3272883,18.6290168 L31.9001468,19.4486711 C31.6288439,19.6382853 31.3247451,19.8212875 30.9894349,19.9972537 Z M29.113085,20.7975624 L28.7822453,19.8538754 C29.1010977,19.7420915 29.4027385,19.6260041 29.6860418,19.5060737 L30.0758784,20.4269578 C29.7726924,20.5553051 29.4514062,20.678953 29.113085,20.7975624 Z M27.1073625,21.3919076 L26.8648797,20.4217519 C27.1910903,20.3402181 27.5065864,20.2547236 27.8105506,20.1655101 L28.0921715,21.1250359 C27.7750455,21.2181124 27.4465092,21.3071405 27.1073625,21.3919076 Z M25.0722826,21.8261222 L24.8948657,20.8419864 C25.2244088,20.7825774 25.5468237,20.7194814 25.8614747,20.6528434 L26.0686629,21.6311445 C25.744027,21.6998971 25.4116899,21.7649349 25.0722826,21.8261222 Z M23.1566861,22.1206081 L23.0289445,21.1288007 C23.360027,21.0861583 23.6861344,21.0400166 24.0067469,20.9904704 L24.1594699,21.9787395 C23.8304961,22.0295777 23.496062,22.0768976 23.1566861,22.1206081 Z M21.1474631,22.3321083 L21.0650052,21.3355138 C21.3967486,21.3080654 21.7251042,21.277262 22.0496421,21.2431658 L22.1541279,22.2376922 C21.8222295,22.2725617 21.4865312,22.3040539 21.1474631,22.3321083 Z M19.1141613,22.4571585 L19.0733521,21.4579915 C19.4051659,21.4444392 19.7347843,21.4276355 20.0618464,21.4076212 L20.1229264,22.4057541 C19.7890996,22.4261823 19.452724,22.4433305 19.1141613,22.4571585 Z M17.0785207,22.4999416 L17.0770334,21.4999427 C17.4084885,21.4994497 17.7386806,21.4957751 18.0673026,21.4889451 L18.0880818,22.4887292 C17.7530281,22.4956929 17.4164051,22.4994391 17.0785207,22.4999416 Z M15.0501539,22.4636024 L15.0877203,21.4643083 C15.4159083,21.4766458 15.7460588,21.4858052 16.0778431,21.4917547 L16.0599142,22.491594 C15.7215879,22.4855272 15.3848913,22.4761862 15.0501539,22.4636024 Z M13.0324522,22.3466467 L13.1110879,21.3497433 C13.4374703,21.3754884 13.7668968,21.3979875 14.0989792,21.417192 L14.0412451,22.415524 C13.7022071,22.3959173 13.3658131,22.3729423 13.0324522,22.3466467 Z M11.0186358,22.1428131 L11.1421994,21.1504764 C11.4653988,21.1907205 11.7930448,21.2276283 12.1246734,21.2611257 L12.024176,22.256063 C11.6848822,22.2217914 11.3495475,22.1840175 11.0186358,22.1428131 Z M9.0110372,21.8410402 L9.18610859,20.8564844 C9.50456327,20.9131113 9.82939818,20.966276 10.1600474,21.0158646 L10.0117326,22.0048048 C9.67220775,21.9538851 9.33845467,21.8992608 9.0110372,21.8410402 Z M7.01419082,21.421995 L7.25226745,20.4507486 C7.5628406,20.5268778 7.88264787,20.5993876 8.21098127,20.6680971 L8.0061509,21.6468946 C7.66681373,21.5758824 7.33592725,21.5008606 7.01419082,21.421995 Z M5.05721786,20.856353 L5.37906169,19.9095602 C5.67608611,20.0105279 5.98699856,20.1077025 6.31087246,20.2007737 L6.03468165,21.1618765 C5.69573312,21.0644733 5.36961284,20.9625456 5.05721786,20.856353 Z M3.13475583,20.061381 L3.58775693,19.1698711 C3.85629879,19.3063247 4.1478104,19.439014 4.46096627,19.5672874 L4.08191775,20.4926642 C3.74432883,20.3543826 3.42819896,20.2104877 3.13475583,20.061381 Z M1.36113262,18.8357333 L2.07079136,18.1311878 C2.25971643,18.3214839 2.49398702,18.51078 2.77175735,18.6967587 L2.21540461,19.5277049 C1.88491264,19.3064269 1.59938077,19.0757106 1.36113262,18.8357333 Z M0.563931181,16.4845063 L1.53414609,16.7267521 C1.51047456,16.8215586 1.50020363,16.9129262 1.50054796,17.0346516 C1.50489336,17.1719858 1.53515412,17.3099092 1.5923606,17.4500481 L0.666528919,17.8279842 C0.565150191,17.5796363 0.509226368,17.3247451 0.500802802,17.0526424 C0.499862207,16.8367306 0.519414287,16.6628002 0.563931181,16.4845063 Z M1.98287243,14.6349861 L2.573529,15.4419092 C2.30602724,15.6377168 2.08701272,15.8361287 1.91815468,16.034293 L1.15700884,15.3857123 C1.37929754,15.124844 1.65553236,14.8745946 1.98287243,14.6349861 Z M3.83645211,13.6105039 L4.23251064,14.5287292 C3.92177431,14.6627592 3.63439339,14.8012189 3.37176701,14.9433717 L2.895751,14.063935 C3.18527597,13.9072228 3.49927253,13.7559397 3.83645211,13.6105039 Z M5.81594371,12.9021408 L6.1015803,13.8604788 C5.77860481,13.956743 5.46925834,14.0571451 5.17449864,14.1613531 L4.84118029,13.2185388 C5.15199782,13.1086537 5.47722694,13.0030967 5.81594371,12.9021408 Z M7.83758257,12.3888604 L8.0477568,13.3665244 C7.71964011,13.4370616 7.40034352,13.5114229 7.09059015,13.5894195 L6.84640995,12.6196896 C7.16758427,12.5388172 7.49821299,12.4618167 7.83758257,12.3888604 Z M9.76356808,12.0332337 L9.91829387,13.0211911 C9.58805826,13.0729099 9.26390529,13.1282243 8.94641465,13.1870141 L8.76433947,12.2037295 C9.09099387,12.1432428 9.42426246,12.0863729 9.76356808,12.0332337 Z M11.7873825,11.7684919 L11.8931855,12.762879 C11.5617292,12.7981461 11.2344371,12.8368382 10.9117833,12.8788777 L10.7825823,11.8872593 C11.1130608,11.8442003 11.4481522,11.8045861 11.7873825,11.7684919 Z M13.7991256,11.5990784 L13.8618012,12.5971124 C13.5299759,12.6179507 13.2009428,12.6420908 12.8750973,12.6694817 L12.7913318,11.6729962 C13.1242198,11.6450133 13.4602831,11.6203574 13.7991256,11.5990784 Z M15.8341223,11.5129461 L15.8564033,12.5126979 C15.524691,12.5200906 15.1947139,12.5306987 14.8668063,12.5444888 L14.8247884,11.545372 C15.1592793,11.531305 15.4958356,11.5204854 15.8341223,11.5129461 Z M16.9984236,12.5 L16.8631186,12.5001809 L16.8604746,11.5001844 L16.9983932,11.5 L16.9984236,12.5 Z" id="椭圆形" transform="translate(16.956748, 16.999971) rotate(90.000000) translate(-16.956748, -16.999971) "></path>
            </g>
        </g>
    </g>
</svg>